<svg width="40" height="40" viewBox="0 0 40 40" fill="none" xmlns="http://www.w3.org/2000/svg">
<path d="M4.05859 12.9141C5.38281 11.2266 7.65625 10.3828 10.8789 10.3828C12.9766 10.3828 14.8398 10.7988 16.4688 11.6309C18.0977 12.4629 18.9121 14.0332 18.9121 16.3418V25.1309C18.9121 25.7402 18.9238 26.4785 18.9473 27.3457C18.9824 28.002 19.082 28.4473 19.2461 28.6816C19.4102 28.916 19.6562 29.1094 19.9844 29.2617V30H14.5352C14.3828 29.6133 14.2773 29.25 14.2188 28.9102C14.1602 28.5703 14.1133 28.1836 14.0781 27.75C13.3867 28.5 12.5898 29.1387 11.6875 29.666C10.6094 30.2871 9.39062 30.5977 8.03125 30.5977C6.29688 30.5977 4.86133 30.1055 3.72461 29.1211C2.59961 28.125 2.03711 26.7188 2.03711 24.9023C2.03711 22.5469 2.94531 20.8418 4.76172 19.7871C5.75781 19.2129 7.22266 18.8027 9.15625 18.5566L10.8613 18.3457C11.7871 18.2285 12.4492 18.082 12.8477 17.9062C13.5625 17.6016 13.9199 17.127 13.9199 16.4824C13.9199 15.6973 13.6445 15.1582 13.0938 14.8652C12.5547 14.5605 11.7578 14.4082 10.7031 14.4082C9.51953 14.4082 8.68164 14.7012 8.18945 15.2871C7.83789 15.7207 7.60352 16.3066 7.48633 17.0449H2.65234C2.75781 15.3691 3.22656 13.9922 4.05859 12.9141ZM7.78516 26.3789C8.25391 26.7656 8.82812 26.959 9.50781 26.959C10.5859 26.959 11.5762 26.6426 12.4785 26.0098C13.3926 25.377 13.8672 24.2227 13.9023 22.5469V20.6836C13.5859 20.8828 13.2637 21.0469 12.9355 21.1758C12.6191 21.293 12.1797 21.4043 11.6172 21.5098L10.4922 21.7207C9.4375 21.9082 8.68164 22.1367 8.22461 22.4062C7.45117 22.8633 7.06445 23.5723 7.06445 24.5332C7.06445 25.3887 7.30469 26.0039 7.78516 26.3789ZM32.2581 11.7188C33.7581 12.6797 34.6195 14.332 34.8421 16.6758H29.8323C29.762 16.0312 29.5804 15.5215 29.2874 15.1465C28.7366 14.4668 27.7991 14.127 26.4749 14.127C25.3851 14.127 24.6058 14.2969 24.137 14.6367C23.68 14.9766 23.4515 15.375 23.4515 15.832C23.4515 16.4062 23.6976 16.8223 24.1898 17.0801C24.682 17.3496 26.4222 17.8125 29.4105 18.4688C31.4027 18.9375 32.8968 19.6465 33.8929 20.5957C34.8773 21.5566 35.3695 22.7578 35.3695 24.1992C35.3695 26.0977 34.6605 27.6504 33.2425 28.8574C31.8363 30.0527 29.6566 30.6504 26.7034 30.6504C23.6917 30.6504 21.4652 30.0176 20.0238 28.752C18.5941 27.4746 17.8792 25.8516 17.8792 23.8828H22.9593C23.0648 24.7734 23.2933 25.4062 23.6448 25.7812C24.2659 26.4492 25.4144 26.7832 27.0902 26.7832C28.0745 26.7832 28.8538 26.6367 29.428 26.3438C30.014 26.0508 30.307 25.6113 30.307 25.0254C30.307 24.4629 30.0726 24.0352 29.6038 23.7422C29.1351 23.4492 27.3948 22.9453 24.3831 22.2305C22.2152 21.6914 20.6859 21.0176 19.7952 20.209C18.9046 19.4121 18.4593 18.2637 18.4593 16.7637C18.4593 14.9941 19.1507 13.4766 20.5335 12.2109C21.928 10.9336 23.8851 10.2949 26.4046 10.2949C28.7952 10.2949 30.7464 10.7695 32.2581 11.7188Z" fill="#757575"/>
<path d="M6.05859 12.9141C7.38281 11.2266 9.65625 10.3828 12.8789 10.3828C14.9766 10.3828 16.8398 10.7988 18.4688 11.6309C20.0977 12.4629 20.9121 14.0332 20.9121 16.3418V25.1309C20.9121 25.7402 20.9238 26.4785 20.9473 27.3457C20.9824 28.002 21.082 28.4473 21.2461 28.6816C21.4102 28.916 21.6562 29.1094 21.9844 29.2617V30H16.5352C16.3828 29.6133 16.2773 29.25 16.2188 28.9102C16.1602 28.5703 16.1133 28.1836 16.0781 27.75C15.3867 28.5 14.5898 29.1387 13.6875 29.666C12.6094 30.2871 11.3906 30.5977 10.0312 30.5977C8.29688 30.5977 6.86133 30.1055 5.72461 29.1211C4.59961 28.125 4.03711 26.7188 4.03711 24.9023C4.03711 22.5469 4.94531 20.8418 6.76172 19.7871C7.75781 19.2129 9.22266 18.8027 11.1562 18.5566L12.8613 18.3457C13.7871 18.2285 14.4492 18.082 14.8477 17.9062C15.5625 17.6016 15.9199 17.127 15.9199 16.4824C15.9199 15.6973 15.6445 15.1582 15.0938 14.8652C14.5547 14.5605 13.7578 14.4082 12.7031 14.4082C11.5195 14.4082 10.6816 14.7012 10.1895 15.2871C9.83789 15.7207 9.60352 16.3066 9.48633 17.0449H4.65234C4.75781 15.3691 5.22656 13.9922 6.05859 12.9141ZM9.78516 26.3789C10.2539 26.7656 10.8281 26.959 11.5078 26.959C12.5859 26.959 13.5762 26.6426 14.4785 26.0098C15.3926 25.377 15.8672 24.2227 15.9023 22.5469V20.6836C15.5859 20.8828 15.2637 21.0469 14.9355 21.1758C14.6191 21.293 14.1797 21.4043 13.6172 21.5098L12.4922 21.7207C11.4375 21.9082 10.6816 22.1367 10.2246 22.4062C9.45117 22.8633 9.06445 23.5723 9.06445 24.5332C9.06445 25.3887 9.30469 26.0039 9.78516 26.3789ZM34.2581 11.7188C35.7581 12.6797 36.6195 14.332 36.8421 16.6758H31.8323C31.762 16.0312 31.5804 15.5215 31.2874 15.1465C30.7366 14.4668 29.7991 14.127 28.4749 14.127C27.3851 14.127 26.6058 14.2969 26.137 14.6367C25.68 14.9766 25.4515 15.375 25.4515 15.832C25.4515 16.4062 25.6976 16.8223 26.1898 17.0801C26.682 17.3496 28.4222 17.8125 31.4105 18.4688C33.4027 18.9375 34.8968 19.6465 35.8929 20.5957C36.8773 21.5566 37.3695 22.7578 37.3695 24.1992C37.3695 26.0977 36.6605 27.6504 35.2425 28.8574C33.8363 30.0527 31.6566 30.6504 28.7034 30.6504C25.6917 30.6504 23.4652 30.0176 22.0238 28.752C20.5941 27.4746 19.8792 25.8516 19.8792 23.8828H24.9593C25.0648 24.7734 25.2933 25.4062 25.6448 25.7812C26.2659 26.4492 27.4144 26.7832 29.0902 26.7832C30.0745 26.7832 30.8538 26.6367 31.428 26.3438C32.014 26.0508 32.307 25.6113 32.307 25.0254C32.307 24.4629 32.0726 24.0352 31.6038 23.7422C31.1351 23.4492 29.3948 22.9453 26.3831 22.2305C24.2152 21.6914 22.6859 21.0176 21.7952 20.209C20.9046 19.4121 20.4593 18.2637 20.4593 16.7637C20.4593 14.9941 21.1507 13.4766 22.5335 12.2109C23.928 10.9336 25.8851 10.2949 28.4046 10.2949C30.7952 10.2949 32.7464 10.7695 34.2581 11.7188Z" fill="#F5996F"/>
</svg>
